<?xml version="1.0" encoding="utf-8"?>
<!-- Generator: Adobe Illustrator 24.2.0, SVG Export Plug-In . SVG Version: 6.00 Build 0)  -->
<svg version="1.1" id="图层_1" xmlns="http://www.w3.org/2000/svg" xmlns:xlink="http://www.w3.org/1999/xlink" x="0px" y="0px"
	 viewBox="0 0 1102 557" style="enable-background:new 0 0 1102 557;" xml:space="preserve">
<style type="text/css">
	.st0{fill:none;stroke:url(#SVGID_1_);stroke-width:1.2808;stroke-opacity:0.3;}
	.st1{fill:none;stroke:url(#SVGID_2_);stroke-width:1.2808;stroke-opacity:0.3;}
	.st2{fill-rule:evenodd;clip-rule:evenodd;fill:url(#SVGID_3_);}
	.st3{fill-rule:evenodd;clip-rule:evenodd;fill:url(#SVGID_4_);}
	.st4{fill-rule:evenodd;clip-rule:evenodd;fill:url(#SVGID_5_);}
	.st5{fill-rule:evenodd;clip-rule:evenodd;fill:url(#SVGID_6_);}
	.st6{fill-rule:evenodd;clip-rule:evenodd;fill:url(#SVGID_7_);}
	.st7{fill:url(#SVGID_8_);}
	.st8{fill:url(#SVGID_9_);}
</style>
<radialGradient id="SVGID_1_" cx="978.6924" cy="2.5397" r="1" gradientTransform="matrix(2.191610e-14 -357.917 -357.917 -2.191610e-14 1817.4229 350413.2812)" gradientUnits="userSpaceOnUse">
	<stop  offset="0" style="stop-color:#FFFFFF"/>
	<stop  offset="1" style="stop-color:#FFFFFF;stop-opacity:0.32"/>
</radialGradient>
<circle class="st0" cx="550.5" cy="480.5" r="357.3"/>
<radialGradient id="SVGID_2_" cx="977.1124" cy="-0.9249" r="1" gradientTransform="matrix(238.4258 -238.4258 238.4258 238.4258 -232197.7656 233669.8125)" gradientUnits="userSpaceOnUse">
	<stop  offset="0" style="stop-color:#FFFFFF"/>
	<stop  offset="1" style="stop-color:#FFFFFF;stop-opacity:0.32"/>
</radialGradient>
<circle class="st1" cx="550.5" cy="480.5" r="334.5"/>
<linearGradient id="SVGID_3_" gradientUnits="userSpaceOnUse" x1="550.5" y1="588" x2="550.5" y2="617.5" gradientTransform="matrix(1 0 0 1 0 -468)">
	<stop  offset="0" style="stop-color:#121435;stop-opacity:0"/>
	<stop  offset="0.8021" style="stop-color:#282B53"/>
</linearGradient>
<path class="st2" d="M528.7,120.6c7.2-0.4,14.5-0.6,21.8-0.6s14.6,0.2,21.8,0.6l-14.4,28.9h-14.8L528.7,120.6z"/>
<linearGradient id="SVGID_4_" gradientUnits="userSpaceOnUse" x1="805.477" y1="693.623" x2="784.6271" y2="714.4731" gradientTransform="matrix(1 0 0 1 0 -468)">
	<stop  offset="0" style="stop-color:#121435;stop-opacity:0"/>
	<stop  offset="0.8021" style="stop-color:#282B53"/>
</linearGradient>
<path class="st3" d="M820.4,241.5l-30.6,10.2l-10.4-10.4l10.2-30.6c5.4,4.8,10.7,9.8,15.9,15C810.6,230.8,815.6,236.1,820.4,241.5z"
	/>
<linearGradient id="SVGID_5_" gradientUnits="userSpaceOnUse" x1="295.55" y1="693.65" x2="316.4" y2="714.5" gradientTransform="matrix(1 0 0 1 0 -468)">
	<stop  offset="0" style="stop-color:#121435;stop-opacity:0"/>
	<stop  offset="0.8021" style="stop-color:#282B53"/>
</linearGradient>
<path class="st4" d="M280.6,241.5l30.6,10.2l10.4-10.4l-10.2-30.6c-5.4,4.8-10.7,9.8-15.9,15C290.4,230.8,285.4,236.1,280.6,241.5z"
	/>
<linearGradient id="SVGID_6_" gradientUnits="userSpaceOnUse" x1="911.06" y1="948.6" x2="881.56" y2="948.6" gradientTransform="matrix(1 0 0 1 0 -468)">
	<stop  offset="0" style="stop-color:#121435;stop-opacity:0"/>
	<stop  offset="0.8021" style="stop-color:#282B53"/>
</linearGradient>
<path class="st5" d="M911.1,480.9c0,7.2-0.2,14.4-0.6,21.5L881.6,488v-14.8l28.9-14.4c0.4,7.1,0.6,14.3,0.6,21.5V480.9z"/>
<linearGradient id="SVGID_7_" gradientUnits="userSpaceOnUse" x1="189.962" y1="948.6" x2="219.462" y2="948.6" gradientTransform="matrix(1 0 0 1 0 -468)">
	<stop  offset="0" style="stop-color:#121435;stop-opacity:0"/>
	<stop  offset="0.8021" style="stop-color:#282B53"/>
</linearGradient>
<path class="st6" d="M190.6,502.4l28.9-14.4v-14.8l-28.9-14.4c-0.4,7.2-0.6,14.5-0.6,21.8S190.2,495.1,190.6,502.4z"/>
<g>
	
		<radialGradient id="SVGID_8_" cx="550.5" cy="77.5" r="192.1" gradientTransform="matrix(1 0 0 -1 0 558)" gradientUnits="userSpaceOnUse">
		<stop  offset="0" style="stop-color:#0E1247"/>
		<stop  offset="0.5837" style="stop-color:#FFFFFF"/>
		<stop  offset="0.6829" style="stop-color:#FFFFFF;stop-opacity:0.6"/>
		<stop  offset="1" style="stop-color:#36299B"/>
	</radialGradient>
	<circle class="st7" cx="550.5" cy="480.5" r="192.1"/>
</g>
<g>
	
		<radialGradient id="SVGID_9_" cx="979.4235" cy="-0.925" r="1" gradientTransform="matrix(4.715435e-14 -770.089 982.64 6.016935e-14 1459.4901 755260.4375)" gradientUnits="userSpaceOnUse">
		<stop  offset="5.729170e-02" style="stop-color:#000000"/>
		<stop  offset="0.7148" style="stop-color:#030419"/>
		<stop  offset="0.8125" style="stop-color:#0E1247"/>
		<stop  offset="0.9115" style="stop-color:#36299B"/>
	</radialGradient>
	<circle class="st8" cx="550.5" cy="901.6" r="581.5"/>
</g>
</svg>
